<svg aria-hidden="true" style="position: absolute; width: 0; height: 0; overflow: hidden;" version="1.1" xmlns="http://www.w3.org/2000/svg" xmlns:xlink="http://www.w3.org/1999/xlink">
<defs>
<symbol id="icon-icon-calculator" viewBox="0 0 32 32">
<path fill="#474f54" style="fill: var(--color1, #474f54)" d="M32.002 0v20.626l-1.875 1.938h-28.252l-1.875-1.938v-20.626z"></path>
<path fill="#32393f" style="fill: var(--color2, #32393f)" d="M32.002 0v20.626l-1.875 1.938h-14.126v-22.564z"></path>
<path fill="#dadae5" style="fill: var(--color3, #dadae5)" d="M11.313 25.439h9.376v5.625h-9.376z"></path>
<path fill="#c9c9d3" style="fill: var(--color4, #c9c9d3)" d="M16.001 25.439h4.688v5.625h-4.688z"></path>
<path fill="#efeff4" style="fill: var(--color5, #efeff4)" d="M0 20.626h32.002v5.75h-32.002z"></path>
<path fill="#dadae5" style="fill: var(--color3, #dadae5)" d="M16.001 20.626h16.001v5.75h-16.001z"></path>
<path fill="#efeff4" style="fill: var(--color5, #efeff4)" d="M7.563 30.127h16.876v1.875h-16.876z"></path>
<path fill="#dadae5" style="fill: var(--color3, #dadae5)" d="M16.001 30.127h8.438v1.875h-8.438z"></path>
<path fill="#549ef2" style="fill: var(--color6, #549ef2)" d="M10.376 3.75c-3.618 0-6.563 2.945-6.563 6.563s2.945 6.563 6.563 6.563 6.563-2.945 6.563-6.563-2.945-6.563-6.563-6.563zM10.376 13.126c-1.553-0.002-2.811-1.26-2.813-2.813v-0c0.002-1.553 1.26-2.811 2.813-2.813h0c1.553 0.002 2.811 1.26 2.813 2.813v0c-0.002 1.553-1.26 2.811-2.813 2.813h-0z"></path>
<path fill="#377fd2" style="fill: var(--color7, #377fd2)" d="M22.564 3.75h5.688v1.875h-5.688zM18.814 3.75h1.875v1.875h-1.875zM22.564 11.251h5.688v1.875h-5.688zM18.814 11.251h1.875v1.875h-1.875zM18.814 7.5h9.438v1.875h-9.438zM18.814 15.001h9.438v1.875h-9.438z"></path>
</symbol>
<symbol id="icon-icon-karma" viewBox="0 0 32 32">
<path fill="#676e74" style="fill: var(--color8, #676e74)" d="M13.188 26.314h5.625v5.688h-5.625z"></path>
<path fill="#333637" style="fill: var(--color9, #333637)" d="M16.001 26.314h2.813v5.688h-2.813z"></path>
<path fill="#4c545a" style="fill: var(--color10, #4c545a)" d="M11.313 23.501h9.376v4.688h-9.376z"></path>
<path fill="#52585c" style="fill: var(--color11, #52585c)" d="M16.001 23.501h4.688v4.688h-4.688z"></path>
<path fill="#ffda2d" style="fill: var(--color12, #ffda2d)" d="M22.507 18.364c-1.163 0.957-1.819 2.306-1.819 3.713v1.425h-9.376v-1.425c0-1.425-0.619-2.756-1.65-3.563-2.531-1.969-3.975-4.931-3.975-8.138 0-0.004 0-0.010 0-0.015 0-3.217 1.476-6.090 3.788-7.978l0.019-0.015c1.856-1.5 4.125-2.369 6.506-2.369 0.731 0 1.481 0.075 2.213 0.225 4.050 0.844 7.238 4.225 7.95 8.332 0.638 3.75-0.713 7.425-3.657 9.807z"></path>
<path fill="#fdbf00" style="fill: var(--color13, #fdbf00)" d="M22.507 18.364c-1.163 0.957-1.819 2.306-1.819 3.713v1.425h-4.688v-23.501c0.731 0 1.481 0.075 2.213 0.225 4.050 0.844 7.238 4.225 7.95 8.332 0.638 3.75-0.713 7.425-3.657 9.807z"></path>
<path fill="#676e74" style="fill: var(--color8, #676e74)" d="M9.438 22.564h13.126v1.875h-13.126z"></path>
<path fill="#ff9100" style="fill: var(--color14, #ff9100)" d="M19.979 5.072l1.326 1.326-1.99 1.989-1.326-1.326z"></path>
<path fill="#fdbf00" style="fill: var(--color13, #fdbf00)" d="M12.687 12.364l1.326 1.326-1.99 1.99-1.326-1.326zM15.063 14.126h1.875v2.813h-1.875z"></path>
<path fill="#ff9100" style="fill: var(--color14, #ff9100)" d="M19.315 12.364l1.99 1.99-1.326 1.326-1.99-1.99zM19.751 9.438h2.813v1.875h-2.813z"></path>
<path fill="#fdbf00" style="fill: var(--color13, #fdbf00)" d="M12.023 5.072l1.99 1.99-1.326 1.325-1.99-1.989zM9.438 9.438h2.813v1.875h-2.813zM15.063 3.813h1.875v2.813h-1.875z"></path>
<path fill="#ffda2d" style="fill: var(--color12, #ffda2d)" d="M0 9.438h3.813v1.875h-3.813zM3.293 7.405l-2.875-1.875 1.040-1.56 2.875 1.875zM1.458 16.781l-1.040-1.56 2.875-1.875 1.040 1.56z"></path>
<path fill="#fdbf00" style="fill: var(--color13, #fdbf00)" d="M28.189 9.438h3.813v1.875h-3.813zM30.544 16.781l-2.875-1.875 1.040-1.56 2.875 1.875zM28.709 7.405l-1.040-1.56 2.875-1.875 1.040 1.56z"></path>
<path fill="#ff9100" style="fill: var(--color14, #ff9100)" d="M16.001 3.813h0.938v2.813h-0.938zM16.001 14.126h0.938v2.813h-0.938z"></path>
<path fill="#333637" style="fill: var(--color9, #333637)" d="M16.001 22.564h6.563v1.875h-6.563z"></path>
<path fill="#fdbf00" style="fill: var(--color13, #fdbf00)" d="M16.001 5.688c-2.588 0-4.688 2.1-4.688 4.688s2.1 4.688 4.688 4.688 4.688-2.1 4.688-4.688-2.1-4.688-4.688-4.688z"></path>
<path fill="#ff9100" style="fill: var(--color14, #ff9100)" d="M16.001 15.063v-9.376c2.588 0 4.688 2.1 4.688 4.688s-2.1 4.688-4.688 4.688z"></path>
<path fill="#ffda2d" style="fill: var(--color12, #ffda2d)" d="M15.063 9.438h1.875v1.875h-1.875z"></path>
<path fill="#fdbf00" style="fill: var(--color13, #fdbf00)" d="M16.001 9.438h0.938v1.875h-0.938z"></path>
</symbol>
<symbol id="icon-icon-supervisor" viewBox="0 0 32 32">
<path fill="#676e74" style="fill: var(--color8, #676e74)" d="M28.423 3.579c-4.763-4.782-12.452-4.763-17.215 0-4.013 4.013-4.725 10.221-1.763 15.002l-1.257 1.275-0.678 3.072 2.107 2.107 2.547-1.204 1.256-1.275c1.817 1.144 4.026 1.822 6.394 1.822 3.365 0 6.41-1.371 8.608-3.584l0.001-0.001c4.782-4.763 4.763-12.452 0-17.215z"></path>
<path fill="#474f54" style="fill: var(--color1, #474f54)" d="M12.164 23.832l1.256-1.275c1.817 1.144 4.026 1.822 6.394 1.822 3.365 0 6.41-1.371 8.608-3.584l0.001-0.001c4.782-4.763 4.763-12.452 0-17.215l-20.131 20.131 1.326 1.326 2.547-1.204z"></path>
<path fill="#64e1dc" style="fill: var(--color15, #64e1dc)" d="M27.108 4.894c-1.861-1.866-4.435-3.021-7.279-3.021-0.005 0-0.010 0-0.015 0h0.001c-5.696 0-10.315 4.617-10.315 10.314 0 0.004 0 0.009 0 0.014 0 2.844 1.155 5.418 3.020 7.28l0 0c1.862 1.866 4.436 3.020 7.279 3.020 0.005 0 0.010 0 0.015 0h-0.001c5.696 0 10.314-4.617 10.314-10.314 0-0.004 0-0.009 0-0.014 0-2.844-1.155-5.418-3.020-7.279l-0-0z"></path>
<path fill="#00c8c8" style="fill: var(--color16, #00c8c8)" d="M30.129 12.187c0-0.004 0-0.009 0-0.014 0-2.844-1.155-5.418-3.020-7.279l-0-0-14.586 14.586c1.862 1.867 4.436 3.022 7.281 3.022 0.004 0 0.008 0 0.012 0h-0.001c5.696 0 10.314-4.618 10.314-10.314z"></path>
<path fill="#efeff4" style="fill: var(--color5, #efeff4)" d="M28.121 11.706c-0.092-0.153-1.49-2.457-3.641-4.184-1.315-1.057-2.911-1.898-4.665-1.898-4.621 0-8.157 5.835-8.306 6.083l-0.288 0.481 0.288 0.481c0.092 0.155 1.49 2.458 3.64 4.185 1.316 1.056 2.912 1.898 4.665 1.898 4.622 0 8.158-5.834 8.306-6.083l0.287-0.48-0.287-0.481z"></path>
<path fill="#dadae5" style="fill: var(--color3, #dadae5)" d="M28.121 12.667l0.287-0.48-0.287-0.481c-0.092-0.154-1.49-2.458-3.641-4.185l-9.331 9.331c1.315 1.057 2.911 1.898 4.665 1.898 4.621 0 8.157-5.834 8.305-6.083z"></path>
<path fill="#64e1dc" style="fill: var(--color15, #64e1dc)" d="M21.803 10.199c-0.508-0.51-1.21-0.825-1.986-0.825-0.001 0-0.001 0-0.002 0h0c-1.553 0.002-2.811 1.26-2.813 2.813v0c0 0.776 0.316 1.479 0.825 1.988 0.508 0.51 1.21 0.825 1.987 0.825 0 0 0.001 0 0.001 0h-0c1.553-0.002 2.811-1.26 2.813-2.813v-0c0-0.775-0.315-1.479-0.825-1.988z"></path>
<path fill="#00c8c8" style="fill: var(--color16, #00c8c8)" d="M22.628 12.187c0-0.775-0.315-1.479-0.825-1.988l-3.976 3.976c0.508 0.51 1.21 0.825 1.987 0.825 0.001 0 0.001 0 0.002 0h-0c1.553-0.002 2.811-1.26 2.813-2.813v-0z"></path>
<path fill="#676e74" style="fill: var(--color8, #676e74)" d="M20.478 11.524c-0.17-0.171-0.405-0.276-0.665-0.276-0.518 0-0.938 0.42-0.938 0.938s0.42 0.938 0.938 0.938c0.001 0 0.001 0 0.002 0h-0c0.517-0.001 0.937-0.421 0.937-0.938 0-0.258-0.105-0.492-0.274-0.662l0 0z"></path>
<path fill="#474f54" style="fill: var(--color1, #474f54)" d="M20.753 12.187c0-0.258-0.105-0.493-0.275-0.663l-1.325 1.326c0.17 0.169 0.404 0.274 0.662 0.274 0.518 0 0.937-0.419 0.938-0.936v-0z"></path>
<path fill="#575c60" style="fill: var(--color17, #575c60)" d="M10.167 21.835l-1.979-1.979-8.188 8.17 3.976 3.976 8.188-8.17z"></path>
<path fill="#333637" style="fill: var(--color9, #333637)" d="M12.164 23.832l-1.997-1.997-8.18 8.18 1.988 1.988z"></path>
</symbol>
<symbol id="icon-icon-team-builder" viewBox="0 0 32 32">
<path fill="#efeff4" style="fill: var(--color5, #efeff4)" d="M32.002 7.227v20.895h-32.002v-20.895l1.875-1.894h28.252z"></path>
<path fill="#dadae5" style="fill: var(--color3, #dadae5)" d="M32.002 7.227v20.895h-16.001v-22.789h14.126z"></path>
<path fill="#474f54" style="fill: var(--color1, #474f54)" d="M0 0h32.002v7.758h-32.002z"></path>
<path fill="#32393f" style="fill: var(--color2, #32393f)" d="M16.001 0h16.001v7.758h-16.001z"></path>
<path fill="#ff637b" style="fill: var(--color18, #ff637b)" d="M3.879 2.909h1.843v1.94h-1.843zM7.564 2.909h1.843v1.94h-1.843zM11.249 2.909h1.843v1.94h-1.843z"></path>
<path fill="#ff637b" style="fill: var(--color18, #ff637b)" d="M22.789 21.124v10.878h-5.611v-1.855h-1.87v1.855h-5.611v-10.878l5.685-4.638h1.553z"></path>
<path fill="#dadae5" style="fill: var(--color3, #dadae5)" d="M5.818 11.152h20.85v1.94h-20.85z"></path>
<path fill="#c9c9d3" style="fill: var(--color4, #c9c9d3)" d="M16.001 11.152h10.183v1.94h-10.183z"></path>
<path fill="#e63950" style="fill: var(--color19, #e63950)" d="M22.789 21.124v10.878h-5.819v-1.855h-0.97v-13.661h0.718z"></path>
<path fill="#efeff4" style="fill: var(--color5, #efeff4)" d="M15.031 22.789h1.939v1.94h-1.939z"></path>
<path fill="#dadae5" style="fill: var(--color3, #dadae5)" d="M16.001 22.789h0.97v1.94h-0.97z"></path>
<path fill="#676e74" style="fill: var(--color8, #676e74)" d="M25.213 22.891l-1.226 1.353-7.744-6.763-7.744 6.763-1.226-1.353 8.971-7.859z"></path>
<path fill="#474f54" style="fill: var(--color1, #474f54)" d="M16.001 15.031l9.213 7.859-1.259 1.353-7.953-6.763z"></path>
</symbol>
</defs>
</svg>
